<?xml version="1.0" encoding="utf-8"?>
<!-- Generator: Adobe Illustrator 24.1.1, SVG Export Plug-In . SVG Version: 6.00 Build 0)  -->
<svg version="1.1" id="Layer_1" xmlns="http://www.w3.org/2000/svg" xmlns:xlink="http://www.w3.org/1999/xlink" x="0px" y="0px"
	 viewBox="0 0 500 500" style="enable-background:new 0 0 500 500;" xml:space="preserve">
<g>
	<path d="M213,336c-67.8,0-123-55.2-123-123S145.2,90,213,90s123,55.2,123,123S280.8,336,213,336z M213,114c-54.6,0-99,44.4-99,99
		s44.4,99,99,99s99-44.4,99-99S267.6,114,213,114z"/>
</g>
<g>
	<path d="M392.5,404.5c-3.1,0-6.1-1.2-8.5-3.5L283,300c-4.7-4.7-4.7-12.3,0-17c4.7-4.7,12.3-4.7,17,0l101,101c4.7,4.7,4.7,12.3,0,17
		C398.7,403.3,395.6,404.5,392.5,404.5z"/>
</g>
<g>
	<path d="M145,222c-5,0-9-4-9-9c0-44.1,35.9-80,80-80c5,0,9,4,9,9s-4,9-9,9c-34.2,0-62,27.8-62,62C154,218,150,222,145,222z"/>
</g>
</svg>
