<?xml version="1.0" encoding="utf-8"?>
<!-- Generator: Adobe Illustrator 24.1.1, SVG Export Plug-In . SVG Version: 6.00 Build 0)  -->
<svg version="1.1" id="Layer_1" xmlns="http://www.w3.org/2000/svg" xmlns:xlink="http://www.w3.org/1999/xlink" x="0px" y="0px"
	 viewBox="0 0 400 125" style="enable-background:new 0 0 400 125;" xml:space="preserve">
<style type="text/css">
	.st0{fill:#231F20;}
	.st1{fill:url(#SVGID_1_);}
	.st2{fill:url(#SVGID_2_);}
	.st3{fill:#FFFFFF;}
	.st4{fill:url(#SVGID_3_);}
	.st5{fill:url(#SVGID_4_);}
</style>
<g>
	<g>
		<path class="st3" d="M153.4,63.7c3,2,4.4,5.2,4.4,9.3h-10.6c0-3.3-1.8-5-5.4-5c-3.6,0-5.4,2.1-5.4,6.2v3.1c0,4.1,1.9,6.2,5.6,6.2
			c3.8,0,5.6-1.7,5.6-5.1h10.2c0,4.2-1.5,7.4-4.4,9.4c-3,2.1-6.8,3.1-11.6,3.1c-5.1,0-9.1-1.3-12-3.9c-2.9-2.6-4.4-6.4-4.4-11.4
			c0-5,1.5-8.8,4.4-11.4c2.9-2.6,6.9-3.9,12-3.9C146.6,60.6,150.5,61.6,153.4,63.7z"/>
		<path class="st3" d="M183.5,60.8c0.7,0.2,1,0.3,1,0.4v9.2H181c-2.3,0-3.9,0.6-4.9,1.8c-1,1.2-1.5,2.9-1.5,5.2v13h-11V61.3h9
			l0.7,4.4c0.7-1.7,1.7-3,3.1-3.8c1.4-0.9,3.1-1.3,4.9-1.3C182.1,60.5,182.8,60.6,183.5,60.8z"/>
		<path class="st3" d="M216.2,64.4c2.8,2.5,4.2,6.3,4.2,11.5v1.9h-21.8c0,2.1,0.5,3.7,1.4,4.7c0.9,1.1,2.4,1.6,4.4,1.6
			c1.8,0,3.2-0.4,4.1-1.2c0.9-0.8,1.3-1.8,1.3-3.1h10.6c0,3.5-1.3,6.3-4,8.3c-2.7,2-6.6,3-11.7,3c-5.4,0-9.6-1.3-12.6-3.8
			c-3-2.5-4.5-6.3-4.5-11.4c0-5,1.5-8.8,4.4-11.4c2.9-2.6,6.9-3.9,12-3.9C209.3,60.6,213.4,61.9,216.2,64.4z M198.6,72.5h10.7
			c0-1.5-0.4-2.7-1.3-3.6c-0.9-0.9-2.1-1.3-3.6-1.3C200.9,67.6,199,69.2,198.6,72.5z"/>
		<path class="st3" d="M250.9,62.8c2.8,1.5,4.2,3.9,4.2,7.3v11.4c0,0.6,0.1,1.1,0.4,1.5c0.3,0.4,0.7,0.6,1.3,0.6h2v6.3
			c-0.1,0.1-0.4,0.2-0.9,0.4c-0.5,0.2-1.1,0.3-2,0.5c-0.8,0.2-1.8,0.2-2.9,0.2c-2.1,0-3.9-0.3-5.3-1c-1.4-0.6-2.3-1.5-2.8-2.7
			c-1.4,1.1-3,2-4.7,2.6c-1.7,0.7-3.7,1-6.1,1c-6.8,0-10.3-2.7-10.3-8.2c0-2.8,0.8-5,2.3-6.5c1.5-1.5,3.7-2.5,6.6-3.1
			c2.9-0.6,6.6-0.8,11.2-0.8v-1.4c0-1.1-0.4-2-1.2-2.6c-0.8-0.6-1.8-0.9-3.1-0.9c-1.1,0-2.1,0.2-3,0.6s-1.2,1-1.2,1.9v0.2h-10.8
			c0-0.2-0.1-0.4-0.1-0.8c0-2.8,1.3-4.9,3.9-6.6c2.6-1.6,6.4-2.4,11.3-2.4C244.5,60.6,248.1,61.3,250.9,62.8z M237.2,78.7
			c-1.5,0.7-2.2,1.6-2.2,2.7c0,1.8,1.2,2.8,3.7,2.8c1.4,0,2.7-0.4,3.8-1.2c1.1-0.8,1.6-1.7,1.6-2.9v-2.5
			C241,77.7,238.7,78,237.2,78.7z"/>
		<path class="st3" d="M280.9,61.3v7.4h-6.2v11.1c0,1.3,0.2,2.3,0.7,2.9c0.4,0.6,1.2,0.9,2.4,0.9h3.1V90c-0.9,0.3-2,0.5-3.4,0.7
			c-1.4,0.2-2.6,0.3-3.6,0.3c-3.2,0-5.7-0.6-7.5-1.8c-1.7-1.2-2.6-3.2-2.6-6V68.7h-4.1v-7.4h4.5l2.4-8.8h8.2v8.8H280.9z"/>
		<path class="st3" d="M286.4,57.8v-7.4h11v7.4H286.4z M286.4,90.4V61.3h11v29.1H286.4z"/>
		<path class="st3" d="M312.1,90.4l-11-29.1h11.8l5.3,18.1h0.4l5.3-18.1h10.8l-11.1,29.1H312.1z"/>
		<path class="st3" d="M363.9,64.4c2.8,2.5,4.2,6.3,4.2,11.5v1.9h-21.8c0,2.1,0.5,3.7,1.4,4.7c0.9,1.1,2.4,1.6,4.4,1.6
			c1.8,0,3.2-0.4,4.1-1.2c0.9-0.8,1.3-1.8,1.3-3.1h10.6c0,3.5-1.3,6.3-4,8.3c-2.7,2-6.6,3-11.7,3c-5.4,0-9.6-1.3-12.6-3.8
			c-3-2.5-4.5-6.3-4.5-11.4c0-5,1.5-8.8,4.4-11.4c2.9-2.6,6.9-3.9,12-3.9C357,60.6,361.1,61.9,363.9,64.4z M346.3,72.5H357
			c0-1.5-0.4-2.7-1.3-3.6c-0.9-0.9-2.1-1.3-3.6-1.3C348.7,67.6,346.7,69.2,346.3,72.5z"/>
	</g>
	<g>
		<linearGradient id="SVGID_1_" gradientUnits="userSpaceOnUse" x1="31.9002" y1="62.5" x2="79.1716" y2="62.5">
			<stop  offset="0" style="stop-color:#FDBD10"/>
			<stop  offset="0.1966" style="stop-color:#FBAB13"/>
			<stop  offset="0.5898" style="stop-color:#F57C1C"/>
			<stop  offset="0.8603" style="stop-color:#F05822"/>
		</linearGradient>
		<path class="st1" d="M77.2,104.6c-4.1,1.9-8.6,2.9-13.4,2.9c-3.1,0-6-0.4-8.8-1.2c-1.5-0.4-2.9-0.9-4.3-1.6
			c-11.1-5-18.8-16.1-18.8-29.1V17.5c5.2,0,9.9,2.1,13.3,5.5s5.5,8.1,5.5,13.3v39.3c0,6,4,11,9.5,12.6c1.2,0.3,2.4,0.5,3.6,0.5
			c7.2,0,13.1-5.9,13.1-13.1c0-0.6,0-1.2-0.1-1.8C79.2,79.6,80.5,89.1,77.2,104.6z"/>
		<linearGradient id="SVGID_2_" gradientUnits="userSpaceOnUse" x1="50.6913" y1="74.1404" x2="95.6912" y2="74.1404">
			<stop  offset="0.1397" style="stop-color:#F05822"/>
			<stop  offset="0.4102" style="stop-color:#F57C1C"/>
			<stop  offset="0.8034" style="stop-color:#FBAB13"/>
			<stop  offset="1" style="stop-color:#FDBD10"/>
		</linearGradient>
		<path class="st2" d="M95.7,75.6c0,12.8-7.6,23.9-18.5,29c3.3-15.5,2-25-0.4-30.8c-0.9-6.4-6.3-11.3-13-11.3
			c-1.3,0-2.5,0.2-3.6,0.5c-5.5,1.6-9.5,6.6-9.5,12.6V46.5c1.4-0.6,2.8-1.2,4.3-1.6c2.8-0.8,5.8-1.2,8.8-1.2
			C81.4,43.7,95.7,58,95.7,75.6z"/>
	</g>
</g>
</svg>
